<?xml version="1.0" encoding="iso-8859-1"?>
<!-- Generator: Adobe Illustrator 19.0.0, SVG Export Plug-In . SVG Version: 6.00 Build 0)  -->
<svg version="1.1" id="Layer_1" xmlns="http://www.w3.org/2000/svg" xmlns:xlink="http://www.w3.org/1999/xlink" x="0px" y="0px"
	 viewBox="0 0 512.001 512.001" style="enable-background:new 0 0 512.001 512.001;" xml:space="preserve">
<path style="fill:#0089A0;" d="M482.963,155.719c13.567,30.666,21.106,64.588,21.106,100.287c0,39.887-9.411,77.574-26.14,110.957
	l-0.254-0.127c-34.726-34.726-68.955-58.582-99.748-74.962c-69.823-37.137-121.922-35.868-121.922-35.868
	c0-41.97-10.638-77.129-25.886-105.955c8.396-6.197,120.854-85.705,252.833,5.668L482.963,155.719L482.963,155.719z"/>
<path style="fill:#E7ECED;" d="M482.963,155.719h-0.011c-131.979-91.373-244.437-11.864-252.833-5.668
	c-35.805-67.75-96.999-100.562-105.162-104.718c38.025-23.708,82.935-37.402,131.048-37.402
	C357.318,7.931,444.44,68.67,482.963,155.719z"/>
<path style="fill:#FFD248;" d="M477.676,366.836l0.254,0.127C437.208,448.258,353.12,504.07,256.005,504.07
	c-44.095,0-85.494-11.505-121.373-31.67c195.266-0.021,242.766-179.447,242.766-179.447l0.529-1.079
	C408.72,308.254,442.949,332.109,477.676,366.836z"/>
<path style="fill:#E7ECED;" d="M155.707,328.514c83.908-26.066,100.298-72.508,100.298-72.508s52.1-1.269,121.922,35.868
	l-0.529,1.079c0,0-47.5,179.426-242.766,179.447c-49.869-28.022-89.068-72.783-109.973-126.67
	C80.481,345.655,123.17,338.613,155.707,328.514z"/>
<path style="fill:#FFD248;" d="M230.119,150.051c15.248,28.826,25.886,63.985,25.886,105.955c0,0-16.39,46.443-100.298,72.508
	C155.189,145.038,50.154,118.772,50.154,118.772l-0.582-0.381c19.626-29.386,45.353-54.342,75.385-73.058
	C133.121,49.489,194.314,82.301,230.119,150.051z"/>
<path style="fill:#0089A0;" d="M50.154,118.772c0,0,105.035,26.267,105.553,209.742c-32.537,10.098-75.226,17.141-131.048,17.215
	c-10.807-27.821-16.729-58.085-16.729-89.723c0-50.916,15.333-98.236,41.642-137.615L50.154,118.772z"/>
<path d="M490.216,152.51L490.216,152.51c-41-92.646-132.932-152.51-234.209-152.51c-47.973,0-94.739,13.349-135.242,38.602
	c-30.75,19.165-57.648,45.232-77.785,75.384C14.862,156.07,0,205.179,0,256.006c0,31.945,5.81,63.098,17.266,92.592
	c21.418,55.208,61.72,101.63,113.481,130.715C168.793,500.698,212.107,512,256.005,512c48.422,0,95.567-13.586,136.339-39.289
	c39.665-25.006,71.711-60.346,92.676-102.196c17.903-35.728,26.98-74.253,26.98-114.51C512,220.004,504.671,185.183,490.216,152.51z
	 M462.828,133.906c-23.572-13.009-47.849-21.834-72.464-26.295c-27.02-4.897-54.522-4.59-81.743,0.913
	c-36.279,7.333-62.998,21.966-75.773,30.094c-28.935-50.07-71.055-80.451-92.032-93.367c35.18-19.26,74.723-29.387,115.19-29.387
	C341.549,15.862,419.978,61.395,462.828,133.906z M125.322,54.524c15.496,8.629,66.723,40.454,97.786,99.235
	c16.333,30.876,24.728,64.75,24.961,100.704c-2.911,6.518-20.801,40.554-84.603,63.122c-0.998-38.302-6.69-72.536-16.987-101.872
	c-9.121-25.99-21.848-48.246-37.826-66.152c-17.987-20.158-36.028-30.249-46.758-34.923C79.144,91.031,100.854,70.44,125.322,54.524
	z M15.862,256.006c0-45.593,12.754-89.704,36.927-127.988c8.116,3.155,25.936,11.822,44.032,32.102
	c40.26,45.12,50.078,112.12,50.897,162.495c-33.347,9.617-72.85,14.698-117.578,15.137
	C20.662,311.613,15.862,284.141,15.862,256.006z M36.503,353.525c46.264-0.901,87.118-6.747,121.557-17.437
	c70.75-21.978,95.746-58.277,102.946-72.012c13.654,0.737,55.018,5.199,107.232,31.701c-4.144,12.591-17.374,47.717-45.549,82.381
	c-20.389,25.085-44.54,45.055-71.782,59.356c-33.503,17.588-71.911,26.63-114.201,26.927
	C92.372,439.017,57.177,399.982,36.503,353.525z M383.885,459.294c-38.235,24.104-82.456,36.845-127.88,36.845
	c-30.908,0-61.5-5.97-89.926-17.428c33.602-3.481,64.637-12.622,92.563-27.344c29.191-15.389,55.018-36.825,76.766-63.712
	c27.955-34.563,41.755-68.817,47.027-84.245c30.005,16.975,58.782,38.858,85.718,65.184
	C448.482,405.593,419.452,436.871,383.885,459.294z M475.459,353.596c-29.4-28.122-60.91-51.224-93.807-68.723
	c-55.738-29.646-100.294-35.454-117.837-36.555c-1.033-33.868-8.906-65.979-23.461-95.649c10.913-7.026,36.555-21.552,71.411-28.598
	c56.625-11.446,112.07,0.984,164.827,36.918c12.96,30.043,19.548,61.994,19.548,95.018
	C496.138,290.114,489.172,322.885,475.459,353.596z"/>
<g>
</g>
<g>
</g>
<g>
</g>
<g>
</g>
<g>
</g>
<g>
</g>
<g>
</g>
<g>
</g>
<g>
</g>
<g>
</g>
<g>
</g>
<g>
</g>
<g>
</g>
<g>
</g>
<g>
</g>
</svg>
